<?xml version="1.0" encoding="UTF-8"?>
<svg version="1.1" xmlns="http://www.w3.org/2000/svg" width="1667" height="417">
<path d="M0 0 C1.51803756 1.31276036 3.01935951 2.64520056 4.5 4 C5.18191406 4.59039062 5.86382812 5.18078125 6.56640625 5.7890625 C20.6187684 18.71393571 28.0362122 37.24957533 29.5 56 C29.57089844 56.82371094 29.64179688 57.64742188 29.71484375 58.49609375 C30.24079115 70.97156618 27.07240866 83.93214964 21.5 95 C21.05398438 95.93714844 20.60796875 96.87429687 20.1484375 97.83984375 C16.99751753 103.85890882 13.20071778 108.68379742 8.54541016 113.5769043 C7.90863657 114.25064181 7.27186298 114.92437933 6.61579323 115.61853313 C-4.48129935 127.26842047 -15.9243889 138.58942592 -27.29931688 149.96657395 C-29.36790241 152.03587683 -31.43577168 154.1058928 -33.5033989 156.17615318 C-40.72974255 163.41168945 -47.95860365 170.64469915 -55.18994141 177.87524414 C-61.9152044 184.59990293 -68.63482838 191.33016109 -75.3519274 198.0629738 C-81.14487329 203.86898533 -86.94165786 209.67114514 -92.7414602 215.47030753 C-96.1950184 218.92361113 -99.64701538 222.37844032 -103.09514236 225.83716774 C-106.32644602 229.07813974 -109.56249862 232.31429288 -112.80228043 235.54678917 C-113.98878553 236.73224797 -115.17358664 237.91941511 -116.35654449 239.1084137 C-117.97184774 240.73143089 -119.59320416 242.34815287 -121.21621704 243.9634552 C-122.12129313 244.86907605 -123.02636921 245.7746969 -123.95887184 246.70776081 C-128.68102054 250.96740205 -133.04401252 253.15571027 -139.5 253 C-145.71456088 251.97429578 -149.30901511 248.59503851 -153.5 244.109375 C-155.40997715 242.09494598 -157.38789057 240.29859319 -159.5 238.5 C-162.28896393 236.10323412 -164.91990785 233.62040609 -167.5 231 C-170.05990134 228.40017817 -172.6677954 225.93731602 -175.4375 223.5625 C-179.24202566 220.29403275 -182.74020524 216.77941095 -186.2578125 213.20703125 C-188.98056586 210.52696914 -191.83952131 208.05039891 -194.7734375 205.60546875 C-198.53982849 202.1032364 -200.09551666 199.2575424 -200.5625 194.0234375 C-200.42494988 189.57025247 -198.26943271 186.8134003 -195.3125 183.6875 C-191.69247067 181.5154824 -188.7114586 180.80857006 -184.5 181 C-179.66218371 182.57969511 -176.776056 185.51911272 -173.34765625 189.11328125 C-171.49762187 191.0024284 -169.57147248 192.71945504 -167.5625 194.4375 C-164.75423653 196.85617779 -162.10029407 199.35899683 -159.5 202 C-156.94009866 204.59982183 -154.3322046 207.06268398 -151.5625 209.4375 C-146.96696795 213.38435854 -142.73689649 217.67483483 -138.5 222 C-131.8834095 216.55377264 -125.87277791 210.52828555 -119.81665039 204.4777832 C-118.64653624 203.31230494 -117.47622756 202.14702194 -116.30574036 200.98191833 C-113.14203835 197.83126649 -109.9816147 194.6773469 -106.82220387 191.52239251 C-104.84375704 189.54688784 -102.86472927 187.57196693 -100.88552666 185.59721947 C-94.67997252 179.40531961 -88.47641016 173.21143452 -82.2757445 167.0146392 C-75.14222068 159.88559385 -68.0022106 152.76313071 -60.856453 145.6463483 C-55.31629166 140.12786601 -49.78196933 134.60357159 -44.25197023 129.07490605 C-40.95670768 125.78068689 -37.65910789 122.48889542 -34.35539436 119.2031498 C-31.24524836 116.10959289 -28.14247816 113.00881759 -25.044981 109.90259743 C-23.91410565 108.77095753 -22.78071413 107.64182494 -21.64448547 106.51556015 C-13.23588927 98.17633031 -4.55185415 89.51098588 -0.5625 78.125 C-0.18222656 77.07570313 0.19804687 76.02640625 0.58984375 74.9453125 C4.45126775 62.44954558 2.71001171 49.85988121 -2.5 38 C-9.23941779 25.50693001 -20.24031144 16.49742754 -33.6875 12.0625 C-48.71240725 8.58853301 -62.51518691 11.05939805 -75.6346283 19.00195312 C-81.18780919 22.8742311 -85.79847407 27.77007098 -90.53515625 32.57421875 C-91.66442234 33.70587688 -92.7944374 34.83678805 -93.92515564 35.96699524 C-96.28197203 38.32692108 -98.6319811 40.69334632 -100.97680664 43.06518555 C-103.95400447 46.0762809 -106.94411618 49.0741244 -109.93906498 52.06755352 C-112.27079365 54.39983128 -114.59723445 56.73732584 -116.92202568 59.07651711 C-118.02147037 60.18224174 -119.12205607 61.28683325 -120.22389412 62.39017296 C-126.35884929 68.54265769 -132.10990402 74.79698718 -137.54374695 81.59254456 C-140.03370468 84.65680165 -142.67222316 87.43108529 -145.4609375 90.2265625 C-145.97701569 90.74455414 -146.49309387 91.26254578 -147.02481079 91.79623413 C-148.09937832 92.87214114 -149.17638809 93.94561463 -150.25585938 95.01660156 C-151.87346287 96.62347307 -153.48006913 98.24078494 -155.0859375 99.859375 C-161.56793443 106.34997572 -168.28434429 112.31918238 -175.5 118 C-176.61976616 118.91510681 -177.73849013 119.83149279 -178.85546875 120.75 C-189.52973489 129.23052041 -201.4390271 136.80100161 -214.5 141 C-215.17417969 141.22300781 -215.84835938 141.44601563 -216.54296875 141.67578125 C-233.80718776 146.43720751 -253.05129842 141.84935438 -268.33984375 133.4375 C-286.4823883 122.44510274 -299.35757499 105.77232867 -305.02734375 85.30859375 C-309.28084635 64.53322152 -306.27998593 43.57958326 -295.25 25.375 C-283.47698713 7.70276686 -266.62146642 -4.39483247 -245.86816406 -8.9699707 C-223.30575793 -13.30193199 -204.01664781 -5.71956843 -185.44873047 6.66503906 C-177.40090478 12.17813238 -169.93258568 18.31622333 -162.7578125 24.92578125 C-160.72836537 26.79020413 -158.65965844 28.58774554 -156.5625 30.375 C-151.27342593 34.96900068 -146.40994353 40.00882579 -141.5 45 C-135.91437908 40.36877585 -130.83679728 35.39511232 -125.77734375 30.19921875 C-124.0872094 28.48181065 -122.39643343 26.7650338 -120.70507812 25.04882812 C-118.0751576 22.37588632 -115.44920583 19.69953078 -112.83422852 17.01196289 C-99.05254133 2.86543951 -86.82215423 -8.40550765 -67.5 -14 C-66.70851563 -14.24492188 -65.91703125 -14.48984375 -65.1015625 -14.7421875 C-42.70560902 -20.47869488 -17.98195832 -13.96763735 0 0 Z M-267.87890625 32.0078125 C-277.87027347 44.28636017 -281.87320372 57.30542837 -280.72314453 72.97363281 C-279.31164431 85.79141383 -272.48289676 97.87666244 -262.5 106 C-251.59810522 114.25529332 -239.27538954 118.84225089 -225.5 117 C-205.59099563 112.13281097 -188.90323061 95.66523416 -174.5 82 C-173.83726074 81.37657715 -173.17452148 80.7531543 -172.49169922 80.11083984 C-170.37546496 78.10960243 -168.2794385 76.08909613 -166.1875 74.0625 C-165.17187988 73.1041626 -165.17187988 73.1041626 -164.13574219 72.12646484 C-163.51731445 71.51883301 -162.89888672 70.91120117 -162.26171875 70.28515625 C-161.70444092 69.74769775 -161.14716309 69.21023926 -160.57299805 68.65649414 C-159.30250141 67.05261851 -159.30250141 67.05261851 -159.61303711 65.03173828 C-160.69434225 62.55482627 -162.01375994 61.11399229 -163.9296875 59.20703125 C-164.63689941 58.49885254 -165.34411133 57.79067383 -166.07275391 57.06103516 C-166.83249512 56.31901855 -167.59223633 55.57700195 -168.375 54.8125 C-169.15149902 54.04728027 -169.92799805 53.28206055 -170.72802734 52.49365234 C-176.40387746 46.95223957 -182.16427664 41.78284999 -188.5 37 C-189.05333008 36.57025879 -189.60666016 36.14051758 -190.17675781 35.69775391 C-196.99492368 30.40562896 -203.88640742 25.5260336 -211.5 21.4375 C-212.09844727 21.11515381 -212.69689453 20.79280762 -213.31347656 20.46069336 C-232.02401542 10.81029678 -253.89130581 16.91327966 -267.87890625 32.0078125 Z " fill="#A682FB" transform="translate(336.5,102)"/>
<path d="M0 0 C5.52301268 3.74428871 8.56472129 8.46574809 12.0625 14.0625 C13.36799263 16.10531748 14.67547627 18.14686324 15.984375 20.1875 C16.53669548 21.05188438 16.53669548 21.05188438 17.10017395 21.93373108 C22.61206079 30.54723779 28.24933138 39.07926939 33.87472534 47.61886597 C35.77560549 50.50645431 37.6722932 53.39676276 39.56860352 56.28735352 C46.17878509 66.34308626 52.89524141 76.28629434 60 86 C60.69947754 84.9478833 61.39895508 83.8957666 62.11962891 82.81176758 C70.76108031 69.82536854 79.48068149 56.89252008 88.21289062 43.96704102 C89.43611576 42.15614023 90.65903625 40.34503362 91.88165283 38.53372192 C93.09518074 36.73626646 94.30964919 34.93944562 95.52508545 33.14328003 C98.67069218 28.48711096 101.78491511 23.81332997 104.85644531 19.10791016 C105.48459137 18.15036331 106.11273743 17.19281647 106.75991821 16.20625305 C107.9558376 14.38038871 109.14518234 12.55019485 110.32675171 10.7150116 C113.12670308 6.44982248 115.58870128 2.75927153 120 0 C124.25347979 -0.69602396 126.35175544 -0.33799621 130.17512512 1.65551758 C133.34912004 4.47507407 133.50826972 7.04544271 133.75517273 11.1862793 C133.78790978 13.8201365 133.78819201 16.44147492 133.76049805 19.07421875 C133.76699415 20.52496656 133.77605725 21.97570482 133.78749084 23.42642212 C133.8105536 27.36055477 133.7958647 31.29371618 133.77302146 35.22781754 C133.75409396 39.34679784 133.76526559 43.46571343 133.77192688 47.5847168 C133.77826586 54.50162161 133.76000624 61.41813769 133.72729492 68.33496094 C133.68980069 76.32918624 133.69157936 84.32267512 133.7143361 92.31693935 C133.73529232 100.01050858 133.72800715 107.7038059 133.70801735 115.39736938 C133.70003541 118.67005183 133.70201783 121.94250404 133.71204185 125.21517944 C133.72260055 129.06995556 133.70844597 132.92387452 133.67529869 136.77851486 C133.66709739 138.19222051 133.6673687 139.60600478 133.67677689 141.01970291 C133.74796383 153.03723458 133.74796383 153.03723458 130.61701965 156.34033203 C126.42171789 159.00091883 122.79814267 158.89154678 118 158 C114.90200019 155.80873184 114.19647888 154.58943664 113 151 C112.89968438 149.49014651 112.85385908 147.97634519 112.84178162 146.46321106 C112.8319928 145.53353012 112.82220398 144.60384918 112.81211853 143.64599609 C112.80636307 142.62820068 112.8006076 141.61040527 112.79467773 140.56176758 C112.78477814 139.48843674 112.77487854 138.4151059 112.76467896 137.30924988 C112.73304059 133.75436626 112.70829719 130.19946927 112.68359375 126.64453125 C112.66302625 124.18258818 112.64202983 121.72064866 112.62062073 119.25871277 C112.56537904 112.77323273 112.51597896 106.28772071 112.46777344 99.80218506 C112.41757375 93.18645373 112.36187969 86.57076895 112.30664062 79.95507812 C112.19903339 66.97009209 112.09740757 53.98506634 112 41 C111.63734637 41.55829844 111.27469275 42.11659689 110.90104961 42.69181347 C109.22481957 45.27211553 107.54832412 47.85224505 105.87182617 50.43237305 C105.30163506 51.31018181 104.73144394 52.18799057 104.1439743 53.0923996 C99.03356268 60.95662108 93.8948623 68.80200886 88.74194336 76.63842773 C87.3005176 78.8307243 85.86017687 81.02373102 84.41992188 83.21679688 C82.53647334 86.08447882 80.64799304 88.94875514 78.75634766 91.81103516 C76.88706731 94.64198132 75.04101447 97.48644209 73.20849609 100.34130859 C72.32001996 101.71063338 71.4315122 103.07993765 70.54296875 104.44921875 C69.9432299 105.39786552 69.9432299 105.39786552 69.33137512 106.36567688 C67.25125596 109.55015182 65.68841116 111.79776322 62 113 C58.0687046 113.5982406 56.50275649 113.34520745 53.1953125 111.07421875 C49.10427917 107.49692843 46.54480107 102.9817336 43.75 98.375 C42.52371761 96.39924857 41.29440351 94.42537649 40.0625 92.453125 C39.08410156 90.88594727 39.08410156 90.88594727 38.0859375 89.28710938 C34.41164607 83.49700406 30.5751447 77.81606409 26.75 72.125 C20.93265149 63.45561007 15.21412759 54.74111267 9.75 45.84375 C8.53698001 43.87259251 7.2838499 41.92577485 6 40 C5.99761165 40.56745532 5.99522329 41.13491064 5.99276257 41.71956158 C5.93360336 55.53274536 5.85785887 69.34575267 5.76428509 83.15874767 C5.71953446 89.83865553 5.68028856 96.51848013 5.65356445 103.19848633 C5.62757855 109.64358887 5.58720911 116.08845473 5.53681374 122.53341103 C5.52011319 124.99377819 5.50861883 127.45418633 5.50238609 129.91460228 C5.49277994 133.35762796 5.46476123 136.80004375 5.43237305 140.24291992 C5.43380814 141.26287552 5.43524323 142.28283112 5.4367218 143.33369446 C5.35190474 149.69824448 4.62880458 153.37119542 0 158 C-3.03704568 158.50421994 -5.95802594 158.45467228 -9 158 C-11.50160818 156.12379387 -12.61945652 154.76108697 -14 152 C-14.10228077 150.08557321 -14.13950207 148.16755373 -14.14717102 146.25041199 C-14.15432632 145.02642197 -14.16148163 143.80243195 -14.16885376 142.54135132 C-14.17169414 141.17755152 -14.17440586 139.81375145 -14.17700195 138.44995117 C-14.18326569 137.01936172 -14.18991241 135.5887739 -14.19691467 134.15818787 C-14.21433236 130.26553841 -14.22487846 126.37290124 -14.2331202 122.48022246 C-14.23826862 120.04893451 -14.24434441 117.61765038 -14.25063133 115.18636513 C-14.26968536 107.58151474 -14.28391618 99.97667409 -14.2922433 92.37180442 C-14.30201826 83.58935209 -14.32834347 74.80715164 -14.36874419 66.02478808 C-14.39888977 59.23916094 -14.41371067 52.45360607 -14.41702431 45.66791326 C-14.41937655 41.61387008 -14.42835914 37.56009592 -14.45348549 33.5061245 C-14.4767443 29.69180578 -14.48100856 25.87793361 -14.47072411 22.06356239 C-14.4702281 20.66433351 -14.47656783 19.2650828 -14.49028015 17.86592102 C-14.50796594 15.95420861 -14.49851838 14.04230281 -14.48774719 12.13053894 C-14.49013555 11.06109134 -14.4925239 9.99164373 -14.49498463 8.88978863 C-13.87714855 5.28277625 -12.51056442 3.61223943 -10 1 C-6.81929763 -0.59035119 -3.41669549 -0.78937448 0 0 Z " fill="#000000" transform="translate(1040,132)"/>
<path d="M0 0 C2.74403055 2.06609359 5.05943738 4.17283499 7.32421875 6.75 C7.33839844 6.15832031 7.35257813 5.56664062 7.3671875 4.95703125 C7.61951624 0.77655783 7.99486494 -1.74567698 10.32421875 -5.3125 C13.82263664 -7.57189489 15.97074357 -7.84236839 20.04296875 -7.9140625 C23.6551936 -6.86255869 25.02629684 -5.22481564 27.32421875 -2.25 C28.06361593 1.18418043 27.99732993 4.55865952 27.95532227 8.06054688 C27.96247757 9.09687759 27.96963287 10.13320831 27.977005 11.20094299 C27.99390326 14.62399476 27.97448152 18.04573901 27.953125 21.46875 C27.95395359 23.84859323 27.95641258 26.2284364 27.96043396 28.60827637 C27.96329276 33.59498326 27.94858198 38.5812412 27.92114258 43.56787109 C27.8870604 49.96056925 27.89307764 56.35246453 27.91180515 62.74520111 C27.92237262 67.65914605 27.91343946 72.5729041 27.89842033 77.48683167 C27.89323625 79.84395289 27.89372304 82.20109362 27.89996529 84.55821228 C27.90541417 87.85238629 27.88505115 91.14541014 27.85766602 94.43945312 C27.86419189 95.41415054 27.87071777 96.38884796 27.87744141 97.39308167 C27.81648827 101.7041111 27.72684635 104.09976922 25.4158783 107.83190918 C22.68817369 110.33326519 21.75451583 110.70940594 18.01171875 111.0625 C13.74885764 110.70124058 12.30429821 109.73007946 9.32421875 106.75 C8.10727999 104.31612247 8.00461979 102.33161154 7.76171875 99.625 C7.67792969 98.71492188 7.59414062 97.80484375 7.5078125 96.8671875 C7.44722656 96.16851562 7.38664062 95.46984375 7.32421875 94.75 C6.56109375 95.760625 5.79796875 96.77125 5.01171875 97.8125 C-2.11251912 106.05459252 -12.90508988 111.80777951 -23.75292969 112.97314453 C-39.31164835 114.06109527 -53.15373748 110.78063933 -65.26953125 100.5625 C-76.46991308 90.03683996 -83.67910087 75.88830957 -84.8527832 60.41674805 C-85.36363068 40.36751117 -83.3891079 21.02609414 -68.80078125 5.65625 C-49.01792929 -12.09013191 -22.39828433 -15.17197654 0 0 Z M-54.42578125 18.9375 C-64.00724581 28.98716876 -66.50017495 41.21368132 -66.67578125 54.75 C-66.14569587 66.36770455 -61.31044214 77.29083778 -53.42578125 85.8125 C-45.78428669 92.76755521 -36.98774883 96.01900785 -26.67578125 95.75 C-16.94558105 94.79719108 -8.32677567 91.0165492 -1.67578125 83.75 C7.36438501 71.69644499 10.24053875 59.69959109 9.32421875 44.75 C7.68187352 33.49019248 2.39992135 22.22117525 -6.77734375 15.125 C-22.47458698 4.20517862 -40.59662109 5.99980636 -54.42578125 18.9375 Z " fill="#000000" transform="translate(1286.67578125,179.25)"/>
<path d="M0 0 C2.74403055 2.06609359 5.05943738 4.17283499 7.32421875 6.75 C7.33839844 6.15832031 7.35257813 5.56664062 7.3671875 4.95703125 C7.61951624 0.77655783 7.99486494 -1.74567698 10.32421875 -5.3125 C13.82263664 -7.57189489 15.97074357 -7.84236839 20.04296875 -7.9140625 C23.6551936 -6.86255869 25.02629684 -5.22481564 27.32421875 -2.25 C28.06361593 1.18418043 27.99732993 4.55865952 27.95532227 8.06054688 C27.96247757 9.09687759 27.96963287 10.13320831 27.977005 11.20094299 C27.99390326 14.62399476 27.97448152 18.04573901 27.953125 21.46875 C27.95395359 23.84859323 27.95641258 26.2284364 27.96043396 28.60827637 C27.96329276 33.59498326 27.94858198 38.5812412 27.92114258 43.56787109 C27.8870604 49.96056925 27.89307764 56.35246453 27.91180515 62.74520111 C27.92237262 67.65914605 27.91343946 72.5729041 27.89842033 77.48683167 C27.89323625 79.84395289 27.89372304 82.20109362 27.89996529 84.55821228 C27.90541417 87.85238629 27.88505115 91.14541014 27.85766602 94.43945312 C27.86419189 95.41415054 27.87071777 96.38884796 27.87744141 97.39308167 C27.81648827 101.7041111 27.72684635 104.09976922 25.4158783 107.83190918 C22.68817369 110.33326519 21.75451583 110.70940594 18.01171875 111.0625 C13.74885764 110.70124058 12.30429821 109.73007946 9.32421875 106.75 C8.10727999 104.31612247 8.00461979 102.33161154 7.76171875 99.625 C7.67792969 98.71492188 7.59414063 97.80484375 7.5078125 96.8671875 C7.44722656 96.16851562 7.38664063 95.46984375 7.32421875 94.75 C6.56109375 95.760625 5.79796875 96.77125 5.01171875 97.8125 C-2.11251912 106.05459252 -12.90508988 111.80777951 -23.75292969 112.97314453 C-39.31164835 114.06109527 -53.15373748 110.78063933 -65.26953125 100.5625 C-76.46991308 90.03683996 -83.67910087 75.88830957 -84.8527832 60.41674805 C-85.36363068 40.36751117 -83.3891079 21.02609414 -68.80078125 5.65625 C-49.01792929 -12.09013191 -22.39828433 -15.17197654 0 0 Z M-54.42578125 18.9375 C-64.00724581 28.98716876 -66.50017495 41.21368132 -66.67578125 54.75 C-66.14569587 66.36770455 -61.31044214 77.29083778 -53.42578125 85.8125 C-45.78428669 92.76755521 -36.98774883 96.01900785 -26.67578125 95.75 C-16.94558105 94.79719108 -8.32677567 91.0165492 -1.67578125 83.75 C7.36438501 71.69644499 10.24053875 59.69959109 9.32421875 44.75 C7.68187352 33.49019248 2.39992135 22.22117525 -6.77734375 15.125 C-22.47458698 4.20517862 -40.59662109 5.99980636 -54.42578125 18.9375 Z " fill="#000000" transform="translate(743.67578125,179.25)"/>
<path d="M0 0 C12.13383732 9.35597949 19.85298634 22.78658103 22.45703125 37.89453125 C23.30891134 48.3963973 23.30891134 48.3963973 20.64453125 53.08203125 C16.57188509 56.4565095 12.43032367 56.03137679 7.40551758 56.00805664 C6.58577957 56.00820267 5.76604156 56.00834869 4.92146301 56.00849915 C2.21063597 56.00780221 -0.50012245 56.00002003 -3.2109375 55.9921875 C-5.08995018 55.99032254 -6.96896335 55.98889901 -8.84797668 55.98789978 C-13.7947219 55.98408073 -18.74143777 55.97425563 -23.68817139 55.9631958 C-28.7354696 55.95296855 -33.78277254 55.94839934 -38.83007812 55.94335938 C-48.73438789 55.93263284 -58.63867588 55.91556373 -68.54296875 55.89453125 C-67.77595134 58.44609974 -67.00148659 60.9950054 -66.22265625 63.54296875 C-66.00826904 64.2589624 -65.79388184 64.97495605 -65.57299805 65.71264648 C-62.0420029 77.19988768 -56.35220621 84.88039055 -45.79296875 90.64453125 C-35.44774577 95.48166417 -24.34912283 96.12211765 -13.3671875 92.98828125 C-6.88170094 90.54901311 -2.60295301 87.33234229 2.36328125 82.58203125 C5.82080495 79.79537035 8.04996434 79.60072679 12.45703125 79.89453125 C16.02115876 81.79034376 17.15693288 83.01299228 18.45703125 86.83203125 C18.45703125 91.87721551 15.87450685 94.59272944 12.64453125 98.20703125 C0.81592471 109.63551579 -13.56671536 113.40442709 -29.55834961 113.31689453 C-45.63586078 112.87892441 -59.51131099 107.48777415 -71.25390625 96.37890625 C-84.84080711 81.63271351 -87.52358772 63.87742902 -86.74267578 44.62255859 C-85.56676876 28.55949622 -78.55146151 14.37076149 -66.98046875 3.26953125 C-48.10897311 -12.51189493 -20.22839941 -14.06806694 0 0 Z M-58.54296875 19.89453125 C-62.59932355 25.7484818 -66.54296875 31.62457114 -66.54296875 38.89453125 C-43.77296875 38.89453125 -21.00296875 38.89453125 2.45703125 38.89453125 C1.10035956 28.0411577 -1.92070133 21.78057417 -10.54296875 14.89453125 C-25.56491824 5.78211745 -46.38868753 5.53320664 -58.54296875 19.89453125 Z " fill="#000000" transform="translate(1508.54296875,179.10546875)"/>
<path d="M0 0 C12.13383732 9.35597949 19.85298634 22.78658103 22.45703125 37.89453125 C23.30891134 48.3963973 23.30891134 48.3963973 20.64453125 53.08203125 C16.57188509 56.4565095 12.43032367 56.03137679 7.40551758 56.00805664 C6.58577957 56.00820267 5.76604156 56.00834869 4.92146301 56.00849915 C2.21063597 56.00780221 -0.50012245 56.00002003 -3.2109375 55.9921875 C-5.08995018 55.99032254 -6.96896335 55.98889901 -8.84797668 55.98789978 C-13.7947219 55.98408073 -18.74143777 55.97425563 -23.68817139 55.9631958 C-28.7354696 55.95296855 -33.78277254 55.94839934 -38.83007812 55.94335938 C-48.73438789 55.93263284 -58.63867588 55.91556373 -68.54296875 55.89453125 C-67.77595134 58.44609974 -67.00148659 60.9950054 -66.22265625 63.54296875 C-66.00826904 64.2589624 -65.79388184 64.97495605 -65.57299805 65.71264648 C-62.0420029 77.19988768 -56.35220621 84.88039055 -45.79296875 90.64453125 C-35.44774577 95.48166417 -24.34912283 96.12211765 -13.3671875 92.98828125 C-6.88170094 90.54901311 -2.60295301 87.33234229 2.36328125 82.58203125 C5.82080495 79.79537035 8.04996434 79.60072679 12.45703125 79.89453125 C16.02115876 81.79034376 17.15693288 83.01299228 18.45703125 86.83203125 C18.45703125 91.87721551 15.87450685 94.59272944 12.64453125 98.20703125 C0.81592471 109.63551579 -13.56671536 113.40442709 -29.55834961 113.31689453 C-45.63586078 112.87892441 -59.51131099 107.48777415 -71.25390625 96.37890625 C-84.84080711 81.63271351 -87.52358772 63.87742902 -86.74267578 44.62255859 C-85.56676876 28.55949622 -78.55146151 14.37076149 -66.98046875 3.26953125 C-48.10897311 -12.51189493 -20.22839941 -14.06806694 0 0 Z M-58.54296875 19.89453125 C-62.59932355 25.7484818 -66.54296875 31.62457114 -66.54296875 38.89453125 C-43.77296875 38.89453125 -21.00296875 38.89453125 2.45703125 38.89453125 C1.10035956 28.0411577 -1.92070133 21.78057417 -10.54296875 14.89453125 C-25.56491824 5.78211745 -46.38868753 5.53320664 -58.54296875 19.89453125 Z " fill="#000000" transform="translate(974.54296875,179.10546875)"/>
<path d="M0 0 C2.88214456 3.05364407 3.9116528 4.29322239 4.4375 8.5 C3.97918775 12.16649798 3.22769177 14.08686461 1 17 C-2.20927823 18.60463911 -5.51219449 18.3899066 -9 18 C-11.53635869 16.98712153 -13.74881533 15.97437175 -16.125 14.6875 C-31.86637068 6.80395568 -48.16517095 6.13583833 -65 11 C-80.26163278 16.66386683 -90.59925669 26.75697561 -97.75 41.25 C-104.63765785 57.48032245 -105.70450538 77.43250219 -99.21777344 93.99755859 C-92.56442284 109.66572033 -82.80849065 120.52130808 -66.9375 127.3125 C-51.85849838 132.81940812 -36.02736527 132.44948411 -21 127 C-17.78948046 125.50078245 -14.6796045 123.87925362 -11.5546875 122.2109375 C-8.12904109 120.58716015 -5.71661059 120.24150804 -2 121 C0.75329021 122.79562405 2.52627461 124.05254922 4 127 C4.55910987 132.68428373 4.55910987 132.68428373 4 135 C-4.82641808 145.67607187 -23.86675313 149.44181817 -37 151 C-58.80945069 152.40706134 -81.07100877 146.59636046 -97.75268555 132.04272461 C-112.60544048 118.54296755 -122.93648005 100.45933033 -124.17700195 80.09423828 C-124.71585519 53.50365598 -120.71508791 30.60694286 -101.73046875 10.609375 C-89.98988596 -0.5432303 -75.08724309 -8.52284929 -59 -11 C-58.22011719 -11.12246094 -57.44023438 -11.24492187 -56.63671875 -11.37109375 C-37.38803431 -13.73701703 -16.44945453 -10.69214544 0 0 Z " fill="#000000" transform="translate(639,142)"/>
<path d="M0 0 C0.88341064 0.00491455 1.76682129 0.0098291 2.67700195 0.01489258 C16.70188299 0.2652681 27.16477297 4.36509433 37.68359375 13.56640625 C40.23177712 16.29791217 41.20163634 18.56812968 41.75 22.25 C41.3125 25.3125 41.3125 25.3125 39.25 28.1875 C36.3125 30.3125 36.3125 30.3125 33.125 31.125 C28.16788962 30.06856664 25.65952176 27.61340152 21.87109375 24.35546875 C13.78179553 17.89638025 4.40063002 16.55243541 -5.6875 17.3125 C-11.68288125 18.48390526 -15.82781537 20.40017411 -19.6875 25.3125 C-21.86718731 28.97833774 -21.98954848 32.11879351 -21.26953125 36.328125 C-19.94396251 40.84751371 -17.47900808 43.3241708 -13.48583984 45.52709961 C-4.73179561 49.54563379 4.31552905 52.14629319 13.57421875 54.7421875 C25.0299362 58.12216736 35.09297906 62.67621781 41.3125 73.3125 C45.16348994 81.01447988 45.33505004 90.15114661 43.1875 98.375 C40.17657552 107.36595503 34.55552532 112.86073793 26.3125 117.3125 C11.66143027 124.13658456 -4.9830725 124.35511377 -20.359375 119.5625 C-30.07457414 115.91359891 -40.83348035 110.02053931 -45.6875 100.3125 C-46.2605659 93.20648281 -46.2605659 93.20648281 -44.125 89.875 C-40.8329077 87.76468443 -38.60050627 87.3125 -34.6875 87.3125 C-29.04570896 90.23787313 -29.04570896 90.23787313 -27.6875 94.3125 C-25.84827134 95.37056603 -25.84827134 95.37056603 -23.6875 96.3125 C-22.28178059 97.27742021 -20.88641325 98.25754024 -19.5 99.25 C-10.03027935 105.51717758 -0.81927168 106.31737407 10.3125 105.3125 C15.50676463 104.10028768 19.13645209 102.517232 22.875 98.6875 C25.78028005 93.88747209 26.03255762 89.8758023 25.3125 84.3125 C19.87963128 74.71443193 7.47326302 72.25287632 -2.4375 69.4375 C-29.99893173 61.21868183 -29.99893173 61.21868183 -37.6875 49.3125 C-41.97397118 41.3832598 -41.98596827 31.21902772 -39.75 22.625 C-36.04308616 13.28906884 -28.51526365 7.58722994 -19.6796875 3.46875 C-12.95305384 0.8694242 -7.14495457 -0.04684103 0 0 Z " fill="#000000" transform="translate(1594.6875,169.6875)"/>
<path d="M0 0 C2.43119623 1.87015094 3.64069173 3.28138345 5 6 C5.08471364 7.81341842 5.10721083 9.62994161 5.09765625 11.4453125 C5.09443359 12.52167969 5.09121094 13.59804687 5.08789062 14.70703125 C5.07532227 16.39892578 5.07532227 16.39892578 5.0625 18.125 C5.05798828 19.26066406 5.05347656 20.39632812 5.04882812 21.56640625 C5.03701615 24.37765638 5.02054507 27.1888023 5 30 C5.96039185 29.97643433 5.96039185 29.97643433 6.94018555 29.95239258 C9.85586631 29.88982885 12.77140555 29.85094192 15.6875 29.8125 C16.69490234 29.78736328 17.70230469 29.76222656 18.74023438 29.73632812 C28.1579348 29.64308357 28.1579348 29.64308357 32 33 C34.32536063 36.48804095 34.33457898 37.90140754 34 42 C32.79293121 45.34265205 32.07943151 45.94704566 29 48 C26.45629883 48.22705078 26.45629883 48.22705078 23.45703125 48.1953125 C21.84731445 48.18564453 21.84731445 48.18564453 20.20507812 48.17578125 C19.08552734 48.15902344 17.96597656 48.14226562 16.8125 48.125 C15.68134766 48.11597656 14.55019531 48.10695312 13.38476562 48.09765625 C10.58963172 48.07406862 7.79492155 48.041153 5 48 C5.06127813 57.54497626 5.13843244 67.08965498 5.23571491 76.63433266 C5.28039403 81.0665873 5.31965552 85.49875055 5.34643555 89.93115234 C5.37249315 94.21071442 5.41291277 98.48992433 5.46318626 102.76926804 C5.4798384 104.39984117 5.49136298 106.03047519 5.49761391 107.66112137 C5.50727323 109.94974717 5.5353528 112.23747539 5.56762695 114.52587891 C5.58428154 116.47779648 5.58428154 116.47779648 5.60127258 118.46914673 C6.0348402 122.30852062 6.92317208 124.75386496 9 128 C13.5323387 129.51077957 18.00960855 128.91007636 22.75 128.7421875 C26 129 26 129 27.875 130.30078125 C29.81303045 133.22801475 30 135.52114771 30 139 C26.97136135 143.86417722 24.4405212 145.57104383 19 147 C10.36506936 147.77947205 0.97438237 148.14694107 -5.99609375 142.3359375 C-15.19372779 132.73674355 -14.4096173 121.25581863 -14.29296875 108.83984375 C-14.28736531 107.08151107 -14.28309875 105.32317366 -14.28010559 103.56483459 C-14.26871565 98.9632955 -14.23929963 94.3620458 -14.20599365 89.76062012 C-14.17516583 85.05464593 -14.16157322 80.34862444 -14.14648438 75.64257812 C-14.11442368 66.42825909 -14.06329907 57.21415372 -14 48 C-15.16917969 48.04640625 -16.33835937 48.0928125 -17.54296875 48.140625 C-19.0911202 48.17815594 -20.63929939 48.21455469 -22.1875 48.25 C-22.95642578 48.28351563 -23.72535156 48.31703125 -24.51757812 48.3515625 C-28.54253008 48.42066039 -30.49808724 48.31755003 -33.98828125 46.109375 C-36.38190505 43.59955587 -36.92967199 42.63295206 -37.3125 39.1875 C-36.92653707 35.25067812 -35.76603321 33.76603321 -33 31 C-29.23699626 29.74566542 -25.72789091 29.89304578 -21.8125 29.9375 C-21.06291016 29.94201172 -20.31332031 29.94652344 -19.54101562 29.95117188 C-17.69397617 29.96293646 -15.84697787 29.98087135 -14 30 C-14.02094727 29.29915283 -14.04189453 28.59830566 -14.06347656 27.8762207 C-14.14683048 24.68846081 -14.19872139 21.50093048 -14.25 18.3125 C-14.28351563 17.20970703 -14.31703125 16.10691406 -14.3515625 14.97070312 C-14.45073033 6.76456529 -14.45073033 6.76456529 -12.109375 2.79296875 C-8.37512655 -0.38114243 -4.78240986 -0.71025889 0 0 Z " fill="#000000" transform="translate(1370,143)"/>
<path d="M0 0 C1.19367187 -0.02578125 2.38734375 -0.0515625 3.6171875 -0.078125 C7.49131856 0.28426588 9.83753566 1.19892895 13.125 3.25 C15.58719772 6.94329658 15.91698683 9.9649344 15.125 14.25 C13.125 17.25 13.125 17.25 10.125 19.25 C6.63115283 19.82451407 3.35676757 19.86588379 0.125 18.25 C-7.54984219 17.29064473 -13.20534838 18.01865241 -19.625 22.421875 C-28.8201452 29.89293048 -34.09283626 39.54575361 -35.875 51.25 C-36.15531908 56.07864726 -36.15210136 60.89860402 -36.1484375 65.734375 C-36.15701309 67.12201866 -36.16701797 68.50965415 -36.17837524 69.89727783 C-36.22430688 75.74837548 -36.24927499 81.59941128 -36.25585938 87.45068359 C-36.26087879 91.04689565 -36.28513232 94.64256576 -36.32118607 98.23859406 C-36.33095786 99.6020609 -36.33333029 100.96560244 -36.32801437 102.32909393 C-36.32092949 104.23341161 -36.34033774 106.1377717 -36.36083984 108.04199219 C-36.3651149 109.66340118 -36.3651149 109.66340118 -36.36947632 111.31756592 C-36.99537019 114.94824154 -38.34514952 116.6214699 -40.875 119.25 C-43.97548928 120.80024464 -46.45394218 120.53992015 -49.875 120.25 C-53.26439556 118.11320715 -54.60082557 117.0725233 -55.875 113.25 C-55.9734596 111.82960698 -56.0184111 110.40513186 -56.02890015 108.98136902 C-56.03750061 108.11084396 -56.04610107 107.24031891 -56.05496216 106.34341431 C-56.05922211 105.3911496 -56.06348206 104.43888489 -56.06787109 103.45776367 C-56.07604858 102.45259201 -56.08422607 101.44742035 -56.09265137 100.41178894 C-56.11749405 97.08052161 -56.13401749 93.74929683 -56.1484375 90.41796875 C-56.15642302 88.71224921 -56.15642302 88.71224921 -56.16456985 86.97207069 C-56.19129497 80.95461323 -56.21067302 74.93717648 -56.22509766 68.91967773 C-56.24175502 62.70190886 -56.28654438 56.48466902 -56.3374691 50.26710033 C-56.3711059 45.48785282 -56.38267114 40.70873152 -56.38832474 35.9293766 C-56.39504569 33.63723006 -56.41028948 31.34509206 -56.43421555 29.05306053 C-56.46579573 25.8450731 -56.46591422 22.63852166 -56.45849609 19.43041992 C-56.47490143 18.48422791 -56.49130676 17.53803589 -56.50820923 16.56317139 C-56.46657601 12.16393665 -56.28653281 9.17269466 -53.48110962 5.66133118 C-50.8127027 3.19235875 -49.93010421 2.44357926 -46.375 2.5625 C-45.27671875 2.55669922 -45.27671875 2.55669922 -44.15625 2.55078125 C-40.62450457 3.63328541 -39.11375878 5.34462285 -36.875 8.25 C-36.35062169 11.0457186 -36.08651091 13.27456675 -36.0625 16.0625 C-36.03736328 16.75537109 -36.01222656 17.44824219 -35.98632812 18.16210938 C-35.92786737 19.85747122 -35.89846953 21.55379287 -35.875 23.25 C-35.52308594 22.68152344 -35.17117188 22.11304688 -34.80859375 21.52734375 C-28.13341634 11.08757543 -20.93449954 4.62348873 -8.94140625 0.6015625 C-5.95140086 0.09286593 -3.03145845 0.03911559 0 0 Z " fill="#000000" transform="translate(859.875,169.75)"/>
</svg>
