<?xml version="1.0" standalone="no"?>
<!DOCTYPE svg PUBLIC "-//W3C//DTD SVG 20010904//EN"
 "http://www.w3.org/TR/2001/REC-SVG-20010904/DTD/svg10.dtd">
<svg version="1.0" xmlns="http://www.w3.org/2000/svg"
 width="1667.000000pt" height="417.000000pt" viewBox="0 0 1667.000000 417.000000"
 preserveAspectRatio="xMidYMid meet">

<g transform="translate(0.000000,417.000000) scale(0.100000,-0.100000)"
fill="#000000" stroke="none">
<path d="M2455 3162 c-38 -28 -166 -147 -284 -265 l-215 -216 -105 101 c-101
96 -281 248 -295 248 -3 0 -6 -66 -6 -147 l0 -148 115 -114 c63 -63 115 -119
115 -126 0 -6 -52 -65 -115 -129 l-115 -118 0 -149 c0 -82 3 -149 6 -149 12 0
147 114 241 204 52 49 146 148 210 220 64 72 208 223 320 336 l204 206 -3 148
-3 147 -70 -49z"/>
<path d="M5775 2845 c-299 -67 -513 -268 -597 -562 -19 -65 -22 -103 -23 -228
0 -178 14 -242 82 -385 40 -82 58 -107 142 -190 82 -82 110 -103 191 -143 126
-62 234 -87 376 -87 127 0 254 27 364 77 86 39 109 61 116 104 5 28 1 41 -20
66 -41 49 -67 50 -161 4 -102 -50 -186 -71 -291 -71 -115 0 -187 16 -282 61
-141 68 -240 187 -298 359 -15 44 -19 85 -19 200 0 167 17 239 82 348 103 173
262 267 474 279 120 7 215 -12 329 -67 95 -46 122 -49 155 -16 32 33 42 73 24
105 -31 54 -159 117 -302 147 -84 17 -261 17 -342 -1z"/>
<path d="M10298 2821 l-33 -29 0 -737 0 -737 28 -24 c38 -32 90 -32 122 1 l25
24 0 583 c0 497 2 580 14 568 7 -8 118 -175 245 -371 254 -391 260 -398 325
-367 26 13 78 87 260 364 126 192 235 356 242 364 12 12 14 -73 14 -560 1
-436 4 -579 13 -591 36 -47 105 -52 148 -10 l29 29 0 721 c0 434 -4 730 -10
745 -10 27 -56 56 -88 56 -11 0 -31 -9 -46 -21 -14 -11 -153 -209 -308 -440
l-282 -419 -282 426 c-156 237 -292 433 -305 440 -39 22 -76 17 -111 -15z"/>
<path d="M13609 2725 c-38 -21 -49 -63 -49 -186 l0 -109 -88 0 c-79 0 -91 -2
-109 -22 -30 -33 -36 -63 -19 -96 20 -39 55 -52 141 -52 l75 0 0 -369 c0 -207
4 -392 10 -422 25 -130 102 -191 244 -193 62 -1 90 4 120 18 47 24 68 66 54
108 -14 40 -37 49 -108 41 -69 -7 -101 5 -119 44 -7 16 -11 145 -11 398 l0
373 120 4 c106 3 122 5 141 24 30 30 30 86 -1 119 -23 24 -28 25 -142 25
l-118 0 0 115 c0 84 -4 124 -15 145 -26 50 -74 63 -126 35z"/>
<path d="M7002 2454 c-150 -40 -272 -142 -340 -285 -56 -117 -67 -173 -66
-319 1 -106 5 -137 27 -206 64 -194 209 -337 388 -379 170 -40 325 3 452 125
l57 56 0 -49 c0 -60 20 -101 58 -116 37 -15 74 -6 104 26 l23 25 0 535 0 535
-28 24 c-40 34 -90 32 -128 -5 -25 -25 -29 -37 -29 -81 l0 -52 -57 53 c-121
110 -305 155 -461 113z m300 -188 c62 -29 145 -111 177 -174 68 -133 68 -331
0 -464 -32 -63 -115 -145 -178 -175 -48 -23 -69 -27 -146 -28 -82 0 -96 3
-156 32 -163 81 -252 274 -221 483 25 174 131 304 281 347 69 19 177 10 243
-21z"/>
<path d="M8498 2451 c-31 -10 -71 -28 -90 -39 -47 -30 -122 -109 -152 -162
l-26 -45 0 80 c0 44 -6 91 -13 105 -33 65 -127 65 -160 0 -16 -32 -17 -74 -15
-547 l3 -511 23 -25 c30 -32 67 -41 104 -26 56 23 58 38 58 383 0 355 4 384
74 489 82 123 206 182 300 143 21 -9 49 -16 62 -16 34 0 74 40 80 80 15 91
-107 136 -248 91z"/>
<path d="M9308 2454 c-96 -23 -177 -70 -253 -148 -109 -111 -160 -232 -172
-411 -19 -295 137 -535 402 -617 103 -33 274 -32 368 1 76 26 202 105 241 152
51 61 24 139 -49 139 -27 0 -48 -11 -91 -45 -74 -61 -120 -83 -203 -97 -183
-31 -361 54 -440 211 -26 50 -51 139 -51 176 0 13 61 15 429 15 l429 0 26 31
c30 35 32 64 11 164 -24 114 -75 207 -158 290 -132 132 -311 183 -489 139z
m258 -185 c100 -38 188 -139 200 -232 l7 -47 -352 0 -351 0 6 28 c13 50 62
137 100 175 99 99 250 128 390 76z"/>
<path d="M12432 2454 c-150 -40 -272 -142 -340 -285 -56 -117 -67 -173 -66
-319 1 -106 5 -137 27 -206 64 -194 209 -337 388 -379 170 -40 325 3 452 125
l57 56 0 -49 c0 -60 20 -101 58 -116 37 -15 74 -6 104 26 l23 25 0 535 0 535
-28 24 c-40 34 -90 32 -128 -5 -25 -25 -29 -37 -29 -81 l0 -52 -57 53 c-121
110 -305 155 -461 113z m300 -188 c62 -29 145 -111 177 -174 32 -63 51 -148
51 -232 0 -84 -19 -169 -51 -232 -32 -63 -115 -145 -178 -175 -48 -23 -69 -27
-146 -28 -82 0 -96 3 -156 32 -163 81 -252 274 -221 483 25 174 131 304 281
347 69 19 177 10 243 -21z"/>
<path d="M14648 2454 c-96 -23 -177 -70 -253 -148 -109 -111 -160 -232 -172
-411 -19 -295 137 -535 402 -617 103 -33 274 -32 368 1 76 26 202 105 241 152
51 61 24 139 -49 139 -27 0 -48 -11 -91 -45 -74 -61 -120 -83 -203 -97 -183
-31 -361 54 -440 211 -26 50 -51 139 -51 176 0 13 61 15 429 15 l429 0 26 31
c30 35 32 64 11 164 -24 114 -75 207 -158 290 -132 132 -311 183 -489 139z
m258 -185 c100 -38 188 -139 200 -232 l7 -47 -352 0 -351 0 6 28 c13 50 62
137 100 175 99 99 250 128 390 76z"/>
<path d="M15828 2454 c-137 -33 -241 -122 -273 -235 -32 -115 -3 -221 80 -298
61 -56 119 -83 303 -139 224 -68 274 -104 275 -200 1 -92 -59 -151 -178 -173
-74 -13 -179 2 -248 37 -28 15 -79 53 -113 85 -52 50 -66 59 -98 59 -42 0 -86
-35 -86 -69 0 -63 89 -157 194 -207 222 -105 481 -76 618 68 63 66 82 124 76
233 -9 170 -91 243 -358 320 -142 41 -246 88 -272 125 -22 30 -33 89 -24 124
11 44 63 93 118 112 38 12 72 15 132 12 94 -6 155 -32 231 -98 56 -48 86 -51
126 -11 33 33 35 50 15 90 -68 131 -323 213 -518 165z"/>
<path d="M2260 1185 c-146 -146 -269 -265 -273 -265 -5 0 -99 86 -210 191
-111 105 -215 197 -231 206 -94 49 -207 -57 -167 -156 14 -32 494 -486 544
-513 42 -24 82 -23 131 4 23 12 137 119 259 243 l218 221 -3 167 -3 167 -265
-265z"/>
</g>
</svg>
